<svg xmlns="http://www.w3.org/2000/svg" viewBox="100 100 930 930">
  <rect width="1130" height="1130" x="0" y="0" fill="#E9B88A"/>
  <g transform="translate(0,960) scale(1,-1)">
    <path fill="#182A23" d="M1019 460l-81 81q-15 15 -33 27.5t-37 21.5q12 25 18 53t6 56v112q0 7 -5 12t-12 5h-112q-28 0 -56 -6t-53 -18q-9 20 -21.5 37.5t-27.5 32.5l-81 81q-5 5 -12 5t-12 -5l-81 -81q-15 -15 -27.5 -32.5t-21.5 -37.5q-25 12 -53 18t-56 6h-112q-7 0 -12 -5t-5 -12v-112 q0 -28 6 -56t18 -53q-19 -9 -37 -21.5t-33 -27.5l-81 -81q-5 -5 -5 -12t5 -12l81 -81q15 -15 33 -27.5t37 -21.5q-12 -25 -18 -53t-6 -56v-112q0 -7 5 -12t12 -5h112q28 0 56 6t53 18q9 -20 21.5 -37.5t27.5 -32.5l81 -81q5 -5 12 -5t12 5l81 81q15 15 27.5 32.5t21.5 37.5 q26 -12 53.5 -18t55.5 -6h112q7 0 12 5t5 12v112q0 28 -6 56t-18 53q20 9 37.5 21.5t32.5 27.5l81 81q5 5 5 12t-5 12v0zM666 773q23 11 47.5 16.5t49.5 5.5h96v-96q0 -25 -5.5 -49.5t-16.5 -47.5q-18 5 -36.5 8t-37.5 3h-7q-26 0 -51.5 -5.5t-48.5 -15.5q10 23 15.5 48.5 t5.5 51.5v7q0 19 -3 37.5t-8 36.5v0zM756 580h7q15 0 29.5 -2t28.5 -6q-7 -10 -14.5 -19t-15.5 -17l-3 -4q-33 -32 -75.5 -50t-88.5 -17h-72l53 52q30 31 69.5 47t81.5 16v0zM644 699v0v-7q0 -42 -16 -81.5t-47 -69.5l-52 -53v72q-1 46 17 88.5t50 75.5l4 3q8 8 17 15.5 t19 14.5q4 -14 6 -28.5t2 -29.5v0zM443 851l69 69l69 -69q14 -14 25 -29.5t19 -33.5q-14 -8 -26 -17.5t-23 -20.5l-3 -3q-20 -20 -35.5 -44.5t-25.5 -50.5q-10 26 -25.5 50.5t-35.5 44.5l-3 3q-11 11 -23 20.5t-26 17.5q8 18 19 33.5t25 29.5v0zM380 699q0 15 2 29.5t6 28.5 q10 -7 19 -14.5t17 -15.5l4 -3q32 -33 50 -75.5t17 -88.5v-72l-52 53q-31 30 -47 69.5t-16 81.5v7v0zM419 517l53 -52h-72q-46 -1 -88.5 17t-75.5 50l-3 4q-8 8 -15.5 17t-14.5 19q14 4 28.5 6t29.5 2h7q42 0 81.5 -16t69.5 -47v0zM165 795h96q25 0 49.5 -5.5t47.5 -16.5 q-5 -18 -8 -36.5t-3 -37.5v-7q0 -26 5.5 -51.5t15.5 -48.5q-23 10 -48.5 15.5t-51.5 5.5h-7q-19 0 -37.5 -3t-36.5 -8q-11 23 -16.5 47.5t-5.5 49.5v96v0zM109 379l-69 69l69 69q14 14 29.5 25t33.5 19q8 -14 17.5 -26t20.5 -23l3 -3q20 -20 44.5 -35.5t50.5 -25.5 q-26 -10 -50.5 -25.5t-44.5 -35.5l-3 -3q-11 -11 -20.5 -23t-17.5 -26q-18 8 -33.5 19t-29.5 25v0zM358 123q-23 -11 -47.5 -16.5t-49.5 -5.5h-96v96q0 25 5.5 49.5t16.5 47.5q18 -5 36.5 -8t37.5 -3h7q26 0 51.5 5.5t48.5 15.5q-10 -23 -15.5 -48.5t-5.5 -51.5v-7 q0 -19 3 -37.5t8 -36.5zM268 316h-7q-15 0 -29.5 2t-28.5 6q7 10 14.5 19t15.5 17l3 4q33 32 75.5 50t88.5 17h72l-53 -52q-30 -31 -69.5 -47t-81.5 -16v0zM380 197v7q0 42 16 81.5t47 69.5l52 53v-72q1 -46 -17 -88.5t-50 -75.5l-4 -3q-8 -8 -17 -15.5t-19 -14.5 q-4 14 -6 28.5t-2 29.5v0zM581 45l-69 -69l-69 69q-14 14 -25 29.5t-19 33.5q14 8 26 17.5t23 20.5l3 3q20 20 35.5 44.5t25.5 50.5q10 -26 25.5 -50.5t35.5 -44.5l3 -3q11 -11 23 -20.5t26 -17.5q-8 -18 -19 -33.5t-25 -29.5v0zM644 197q0 -15 -2 -29.5t-6 -28.5 q-10 7 -19 14.5t-17 15.5l-4 3q-32 33 -50 75.5t-17 88.5v72l52 -53q31 -30 47 -69.5t16 -81.5v-7v0zM605 379l-53 52h72q46 1 88.5 -17t75.5 -50l3 -4q8 -8 15.5 -17t14.5 -19q-14 -4 -28.5 -6t-29.5 -2h-7q-42 0 -81.5 16t-69.5 47v0zM859 101h-96q-25 0 -49.5 5.5 t-47.5 16.5q5 18 8 36.5t3 37.5v7q0 26 -5.5 51.5t-15.5 48.5q23 -10 48.5 -15.5t51.5 -5.5h7q19 0 37.5 3t36.5 8q11 -23 16.5 -47.5t5.5 -49.5v-96v0zM915 379q-14 -14 -29.5 -25t-33.5 -19q-8 14 -17.5 26t-20.5 23l-3 3q-20 20 -44.5 35.5t-50.5 25.5"/>
  </g>
</svg>
