<svg xmlns="http://www.w3.org/2000/svg" viewBox="0 0 1600 900" width="1600" height="900">
<rect width="1600" height="900" fill="#FAF5EC"/>
<path d="M1107.1,188.4 A292.0,292.0 0 0 1 1266.8,299.2" fill="none" stroke="#7E9A76" stroke-width="3.4" stroke-linecap="round"/>
<path d="M1274.0,309.7 L1259.3,301.4 L1272.3,292.8 Z" fill="#7E9A76"/>
<path d="M1321.7,456.3 A292.0,292.0 0 0 1 1265.7,642.4" fill="none" stroke="#7E9A76" stroke-width="3.4" stroke-linecap="round"/>
<path d="M1257.9,652.6 L1261.2,636.0 L1273.4,645.7 Z" fill="#7E9A76"/>
<path d="M1133.2,743.2 A292.0,292.0 0 0 1 938.8,747.4" fill="none" stroke="#7E9A76" stroke-width="3.4" stroke-linecap="round"/>
<path d="M926.8,743.2 L943.6,741.2 L938.1,755.8 Z" fill="#7E9A76"/>
<path d="M802.1,652.6 A292.0,292.0 0 0 1 738.0,469.0" fill="none" stroke="#7E9A76" stroke-width="3.4" stroke-linecap="round"/>
<path d="M738.3,456.3 L745.4,471.6 L729.8,470.9 Z" fill="#7E9A76"/>
<path d="M786.0,309.7 A292.0,292.0 0 0 1 940.7,192.0" fill="none" stroke="#7E9A76" stroke-width="3.4" stroke-linecap="round"/>
<path d="M952.9,188.4 L940.5,199.8 L936.4,184.8 Z" fill="#7E9A76"/>
<line x1="1053.5" y1="250.3" x2="1174.2" y2="621.8" stroke="#C4553D" stroke-width="3.2" stroke-linecap="round"/>
<path d="M1178.1,634.0 L1166.1,622.1 L1180.9,617.3 Z" fill="#C4553D"/>
<line x1="1246.2" y1="424.4" x2="930.2" y2="654.1" stroke="#C4553D" stroke-width="3.2" stroke-linecap="round"/>
<path d="M919.9,661.6 L927.4,646.4 L936.6,659.1 Z" fill="#C4553D"/>
<line x1="1140.1" y1="661.6" x2="824.1" y2="431.9" stroke="#C4553D" stroke-width="3.2" stroke-linecap="round"/>
<path d="M813.8,424.4 L830.5,426.9 L821.3,439.6 Z" fill="#C4553D"/>
<line x1="881.9" y1="634.0" x2="1002.6" y2="262.4" stroke="#C4553D" stroke-width="3.2" stroke-linecap="round"/>
<path d="M1006.5,250.3 L1009.3,267.0 L994.5,262.1 Z" fill="#C4553D"/>
<line x1="828.3" y1="379.8" x2="1219.0" y2="379.8" stroke="#C4553D" stroke-width="3.2" stroke-linecap="round"/>
<path d="M1231.7,379.8 L1216.7,387.6 L1216.7,372.0 Z" fill="#C4553D"/>
<circle cx="1030.0" cy="178.0" r="62.0" fill="#C4553D"/>
<text x="1030.0" y="197.0" font-family="WenQuanYi Zen Hei" font-size="54" text-anchor="middle" fill="#FAF5EC">火</text>
<text x="1030.0" y="82.0" font-family="DejaVu Sans" font-size="31" text-anchor="middle" fill="#182A23">Fire</text>
<circle cx="1307.7" cy="379.8" r="62.0" fill="#C79A5B"/>
<text x="1307.7" y="398.8" font-family="WenQuanYi Zen Hei" font-size="54" text-anchor="middle" fill="#FAF5EC">土</text>
<text x="1395.2" y="347.3" font-family="DejaVu Sans" font-size="31" text-anchor="start" fill="#182A23">Earth</text>
<circle cx="1201.6" cy="706.2" r="62.0" fill="#9AA3A0"/>
<text x="1201.6" y="725.2" font-family="WenQuanYi Zen Hei" font-size="54" text-anchor="middle" fill="#FAF5EC">金</text>
<text x="1255.7" y="791.7" font-family="DejaVu Sans" font-size="31" text-anchor="start" fill="#182A23">Metal</text>
<circle cx="858.4" cy="706.2" r="62.0" fill="#3E6B7A"/>
<text x="858.4" y="725.2" font-family="WenQuanYi Zen Hei" font-size="54" text-anchor="middle" fill="#FAF5EC">水</text>
<text x="804.3" y="791.7" font-family="DejaVu Sans" font-size="31" text-anchor="end" fill="#182A23">Water</text>
<circle cx="752.3" cy="379.8" r="62.0" fill="#6E8B5A"/>
<text x="752.3" y="398.8" font-family="WenQuanYi Zen Hei" font-size="54" text-anchor="middle" fill="#FAF5EC">木</text>
<text x="664.8" y="347.3" font-family="DejaVu Sans" font-size="31" text-anchor="end" fill="#182A23">Wood</text>
<text x="120" y="330" font-family="WenQuanYi Zen Hei" font-size="132" fill="#182A23">五行</text>
<text x="122" y="400" font-family="DejaVu Sans" font-size="40" fill="#182A23">The Five Elements</text>
<line x1="124" y1="520" x2="183.2" y2="520" stroke="#7E9A76" stroke-width="3.4" stroke-linecap="round"/>
<path d="M196.0,520.0 L181.0,527.8 L181.0,512.2 Z" fill="#7E9A76"/>
<text x="216" y="530" font-family="DejaVu Sans" font-size="29" fill="#182A23">Generating cycle</text>
<line x1="124" y1="582" x2="183.2" y2="582" stroke="#C4553D" stroke-width="3.4" stroke-linecap="round"/>
<path d="M196.0,582.0 L181.0,589.8 L181.0,574.2 Z" fill="#C4553D"/>
<text x="216" y="592" font-family="DejaVu Sans" font-size="29" fill="#182A23">Controlling cycle</text>
</svg>